{"title":"18+ Lake Placid Vs. Anaconda 2015 UNRATED Movies DVDRip XviD â˜»rD","uid":12156734,"size":740402305,"categoryP":"video","categoryS":"movies","magnet":"?xt=urn:btih:e6476e8785a90750f0fb48a0f1ee09f7090ac4a3&amp;dn=18%2B+Lake+Placid+Vs.+Anaconda+2015+UNRATED+Movies+DVDRip+XviD+%E2%98%BBrD&amp;tr=udp%3A%2F%2Ftracker.openbittorrent.com%3A80&amp;tr=udp%3A%2F%2Fopen.demonii.com%3A1337&amp;tr=udp%3A%2F%2Ftracker.coppersurfer.tk%3A6969&amp;tr=udp%3A%2F%2Fexodus.desync.com%3A6969","seeders":0,"leechers":1,"uploader":"basicssom","files":2,"time":1437798757,"description":"----------------------------------------------------------------\n18+ Lake Placid Vs. Anaconda 2015 UNRATED English Movies DVDRip XviD AAC with Sample ~ â˜»rDXâ˜»\n\nSCREEN SHOTS &amp; POSTER:\n &lt;a href=&quot;\nhttp://imagehosting4u.com/2015/7/LakePlacidVsAnaconda/11.html&quot; rel=&quot;nofollow&quot; target=&quot;_NEW&quot;&gt;\nhttp://imagehosting4u.com/2015/7/LakePlacidVsAnaconda/11.html&lt;/a&gt; &lt;a href=&quot;\nhttp://imagehosting4u.com/2015/7/LakePlacidVsAnaconda/1.html&quot; rel=&quot;nofollow&quot; target=&quot;_NEW&quot;&gt;\nhttp://imagehosting4u.com/2015/7/LakePlacidVsAnaconda/1.html&lt;/a&gt; &lt;a href=&quot;\nhttp://imagehosting4u.com/2015/7/LakePlacidVsAnaconda/2.html&quot; rel=&quot;nofollow&quot; target=&quot;_NEW&quot;&gt;\nhttp://imagehosting4u.com/2015/7/LakePlacidVsAnaconda/2.html&lt;/a&gt; &lt;a href=&quot;\nhttp://imagehosting4u.com/2015/7/LakePlacidVsAnaconda/3.html&quot; rel=&quot;nofollow&quot; target=&quot;_NEW&quot;&gt;\nhttp://imagehosting4u.com/2015/7/LakePlacidVsAnaconda/3.html&lt;/a&gt; &lt;a href=&quot;\nhttp://imagehosting4u.com/2015/7/LakePlacidVsAnaconda/4.html&quot; rel=&quot;nofollow&quot; target=&quot;_NEW&quot;&gt;\nhttp://imagehosting4u.com/2015/7/LakePlacidVsAnaconda/4.html&lt;/a&gt; &lt;a href=&quot;\nhttp://imagehosting4u.com/2015/7/LakePlacidVsAnaconda/5.html&quot; rel=&quot;nofollow&quot; target=&quot;_NEW&quot;&gt;\nhttp://imagehosting4u.com/2015/7/LakePlacidVsAnaconda/5.html&lt;/a&gt; &lt;a href=&quot;\nhttp://imagehosting4u.com/2015/7/LakePlacidVsAnaconda/6.html&quot; rel=&quot;nofollow&quot; target=&quot;_NEW&quot;&gt;\nhttp://imagehosting4u.com/2015/7/LakePlacidVsAnaconda/6.html&lt;/a&gt; &lt;a href=&quot;\nhttp://imagehosting4u.com/2015/7/LakePlacidVsAnaconda/7.html&quot; rel=&quot;nofollow&quot; target=&quot;_NEW&quot;&gt;\nhttp://imagehosting4u.com/2015/7/LakePlacidVsAnaconda/7.html&lt;/a&gt; &lt;a href=&quot;\nhttp://imagehosting4u.com/2015/7/LakePlacidVsAnaconda/8.html&quot; rel=&quot;nofollow&quot; target=&quot;_NEW&quot;&gt;\nhttp://imagehosting4u.com/2015/7/LakePlacidVsAnaconda/8.html&lt;/a&gt; &lt;a href=&quot;\nhttp://imagehosting4u.com/2015/7/LakePlacidVsAnaconda/9.html&quot; rel=&quot;nofollow&quot; target=&quot;_NEW&quot;&gt;\nhttp://imagehosting4u.com/2015/7/LakePlacidVsAnaconda/9.html&lt;/a&gt; &lt;a href=&quot;\nhttp://imagehosting4u.com/2015/7/LakePlacidVsAnaconda/10.html&quot; rel=&quot;nofollow&quot; target=&quot;_NEW&quot;&gt;\nhttp://imagehosting4u.com/2015/7/LakePlacidVsAnaconda/10.html&lt;/a&gt;\n\nFormat                                   : Matroska\nFormat version                           : Version 4 / Version 2\nFile size                                : 694 MiB\nDuration                                 : 1h 32mn\nOverall bit rate                         : 1 053 Kbps\nMovie name                               : 18+ Lake Placid Vs. Anaconda 2015 UNRATED English Movies DVDRip XviD AAC ~ rDX ~\n\nVideo\nID                                       : 1\nFormat                                   : MPEG-4 Visual\nFormat profile                           : Advanced Simple@L5\nFormat settings, BVOP                    : Yes\nFormat settings, QPel                    : No\nFormat settings, GMC                     : No warppoints\nFormat settings, Matrix                  : Default (H.263)\nCodec ID                                 : V_MS/VFW/FOURCC / XVID\nCodec ID/Hint                            : XviD\nDuration                                 : 1h 32mn\nBit rate                                 : 904 Kbps\nWidth                                    : 640 pixels\nHeight                                   : 352 pixels\nDisplay aspect ratio                     : 16:9\nFrame rate mode                          : Constant\nFrame rate                               : 23.976 fps\nColor space                              : YUV\nChroma subsampling                       : 4:2:0\nBit depth                                : 8 bits\nScan type                                : Progressive\nCompression mode                         : Lossy\nBits/(Pixel*Frame)                       : 0.167\nStream size                              : 596 MiB (86%)\nTitle                                    : ~ rDX ~\nWriting library                          : XviD 66\nDefault                                  : Yes\nForced                                   : No\n\nAudio\nID                                       : 2\nFormat                                   : MPEG Audio\nFormat version                           : Version 1\nFormat profile                           : Layer 3\nMode                                     : Joint stereo\nMode extension                           : MS Stereo\nCodec ID                                 : A_MPEG/L3\nCodec ID/Hint                            : MP3\nDuration                                 : 1h 32mn\nBit rate mode                            : Constant\nBit rate                                 : 128 Kbps\nChannel(s)                               : 2 channels\nSampling rate                            : 48.0 KHz\nCompression mode                         : Lossy\nStream size                              : 84.4 MiB (12%)\nTitle                                    : ~ rDX ~\nWriting library                          : LAME3.99r\nEncoding settings                        : -m j -V 4 -q 3 -lowpass 17 -b 128\nDefault                                  : Yes\nForced                                   : No","torrent":{"xt":"urn:btih:e6476e8785a90750f0fb48a0f1ee09f7090ac4a3","amp;dn":"18%2B+Lake+Placid+Vs.+Anaconda+2015+UNRATED+Movies+DVDRip+XviD+%E2%98%BBrD","amp;tr":["udp%3A%2F%2Ftracker.openbittorrent.com%3A80","udp%3A%2F%2Fopen.demonii.com%3A1337","udp%3A%2F%2Ftracker.coppersurfer.tk%3A6969","udp%3A%2F%2Fexodus.desync.com%3A6969"],"infoHash":"e6476e8785a90750f0fb48a0f1ee09f7090ac4a3","infoHashBuffer":{"type":"Buffer","data":[230,71,110,135,133,169,7,80,240,251,72,160,241,238,9,247,9,10,196,163]},"announce":[],"urlList":[]}}